<svg version="1.2" xmlns="http://www.w3.org/2000/svg" viewBox="0 0 512 512" width="512" height="512">
	<title>heartVector</title>
	<style>
		.s0 { fill: #000000 } 
	</style>
	<path id="Path 0" fill-rule="evenodd" class="s0" d="m183.5 76.1c4.9 0 13.7 0.6 19.5 1.4 5.8 0.8 13.9 2.4 18 3.6 4.1 1.1 14.9 4.9 40.5 15.1l13.5-5.7c7.4-3.2 15.8-6.6 18.5-7.5 2.8-1 9.9-2.8 16-4.1 9-1.9 14.1-2.3 27.5-2.4 10.1 0 19.2 0.5 23.5 1.4 3.9 0.7 11.9 3.1 18 5.3 6.1 2.1 14.6 5.9 19 8.4 4.4 2.6 11.3 7.2 15.4 10.3 4.1 3.1 10.1 8.5 13.4 12.1 3.3 3.6 7.6 9 9.7 12 2 3 5.4 8.8 7.4 12.8 2 3.9 4.9 11.1 6.6 16 1.6 4.8 3.6 13 4.4 18.2 0.9 5.2 1.6 15 1.6 21.8 0 7.6-0.7 16.4-1.9 23.5-1.1 6.1-3.1 15.1-4.5 20-1.5 4.8-4.4 13.1-6.5 18.5-2.2 5.3-5.9 14-8.3 19.2-2.5 5.2-7.7 15.4-11.7 22.5-4 7.1-11.6 19.5-16.8 27.5-5.3 8-13.2 19.4-17.6 25.5-4.4 6.1-13.8 18-20.7 26.5-7 8.5-18.5 21.1-25.6 28-7.1 6.9-16.7 15.4-21.4 18.9-4.7 3.5-11.6 8.2-15.5 10.4-3.9 2.2-10.6 5.5-15 7.3-4.4 1.8-11.3 4-15.3 4.9-3.9 0.8-10.5 1.5-14.4 1.5-4.6 0-10.9-0.9-17-2.5-5.4-1.4-13.1-4-17-5.9-4-1.9-11.4-6.1-16.3-9.3-4.9-3.3-12.6-8.9-17-12.4-4.3-3.5-12.4-10.9-18-16.4-5.5-5.5-15-16.1-21.1-23.5-6-7.4-14.4-18-18.6-23.5-4.1-5.5-11.3-15.6-15.9-22.5-4.6-6.9-11.4-17.7-15.2-24-3.8-6.3-10.6-19.1-15.2-28.5-4.6-9.4-10-21.5-12-27-2-5.5-4.8-14.1-6.1-19-1.3-4.9-3.1-13.1-3.9-18-0.8-4.9-1.5-14.6-1.5-21.5 0-6.9 0.7-16.6 1.5-21.5 0.8-4.9 2.7-13.1 4.3-18 1.6-4.9 4.6-12.4 6.7-16.5 2.1-4.1 5.8-10.4 8.4-14 2.5-3.6 7.7-9.7 11.6-13.5 3.8-3.9 10.4-9.5 14.5-12.4 4.1-2.9 10.4-6.8 14-8.6 3.6-1.8 9.4-4.5 13-5.9 3.6-1.5 9.2-3.4 12.5-4.3 3.3-0.8 9.6-2.1 14-2.8 4.4-0.7 12.1-1.3 17-1.4zm-29.5 28.8c-3.6 1.2-9.7 3.8-13.5 5.8-3.8 1.9-9.5 5.1-12.5 7.1-3 2-8.5 6.6-12.1 10.2-3.6 3.6-8.8 9.9-11.5 14-2.8 4.1-6.2 10.7-7.6 14.5-1.5 3.9-3.4 9.7-4.3 13-1 3.5-1.9 12.1-2.2 20.5-0.4 11.2-0.2 16.8 1.1 24.5 1 5.5 3.7 15.9 6 23 2.4 7.2 6.6 17.9 9.4 24 2.7 6.1 7.4 15.5 10.4 21 3 5.5 7.3 12.9 9.5 16.5 2.2 3.6 7.1 11.2 10.8 17 3.7 5.8 10.9 15.9 15.8 22.5 5 6.6 12.9 16.7 17.6 22.5 4.7 5.8 11.3 13.6 14.7 17.5 3.5 3.9 10.8 11.1 16.4 16 5.6 4.9 13.6 11.4 17.8 14.3 4.2 3 10.9 7 14.7 8.9 3.8 1.9 10.4 4.4 14.5 5.4 4.1 1.1 9.5 1.9 12 1.9 2.5 0 7.4-0.7 11-1.5 3.6-0.9 10.6-3.6 15.5-6 4.9-2.5 12.9-7.4 17.8-11 4.8-3.6 14.2-11.8 20.8-18.2 6.7-6.5 16.7-17.4 22.3-24.3 5.6-6.9 14.3-17.9 19.3-24.5 4.9-6.6 12.8-17.9 17.5-25 4.7-7.1 11.2-17.5 14.3-23 3.2-5.5 8.2-14.8 11.1-20.7 3-6 7.2-15.3 9.4-20.8 2.2-5.5 5.1-13.9 6.5-18.7 1.4-4.9 3.3-13.1 4.2-18.3 1.1-6.9 1.4-13.3 1.1-23-0.4-9.3-1.2-16.2-2.7-22-1.2-4.7-4.2-12.6-6.6-17.5-2.4-5-6.9-12.1-10.2-16-3.3-3.8-9-9.6-12.9-12.8-4.2-3.6-11.1-8-17.9-11.3-6.1-2.9-14.6-6.3-19-7.5-5.2-1.4-12.3-2.3-20.5-2.6-8.9-0.3-15.4 0-22.5 1.1-5.5 0.9-14.3 3.2-19.5 5-5.2 1.9-14.7 5.6-21 8.2-9.9 4.2-12.4 4.9-18 4.9-5.7-0.1-8.7-1-24-7.2-9.6-3.8-20.7-7.8-24.5-8.7-3.8-0.9-10.2-2.1-14-2.6-3.8-0.5-10.8-0.9-15.5-0.9-4.7 0-11.7 0.7-15.5 1.4-3.8 0.7-9.9 2.2-13.5 3.4z"/>
</svg>